HIERARCHY
ROOT hip
{
	OFFSET 0.000000 0.000000 0.000000 
	CHANNELS 6 Xposition Yposition Zposition Xrotation Zrotation Yrotation
	JOINT abdomen
	{
		OFFSET 0.000000 3.402643 0.000000 
		CHANNELS 3 Xrotation Zrotation Yrotation
		JOINT chest
		{
			OFFSET 0.000000 8.438565 -0.680529 
			CHANNELS 3 Xrotation Zrotation Yrotation
			JOINT neck
			{
				OFFSET 0.000000 10.207942 -0.272212 
				CHANNELS 3 Xrotation Zrotation Yrotation
				JOINT head
				{
					OFFSET 0.000000 3.130431 0.000000 
					CHANNELS 3 Xrotation Zrotation Yrotation
					End Site
					{
						OFFSET 0.000000 3.130435 0.000000 
					}
				}
			}
			JOINT lCollar
			{
				OFFSET 3.470700 6.669187 -0.816635 
				CHANNELS 3 Yrotation Zrotation Xrotation
				JOINT lShldr
				{
					OFFSET 3.198488 0.000000 0.000000 
					CHANNELS 3 Zrotation Yrotation Xrotation
					JOINT lForeArm
					{
						OFFSET 10.139888 0.000000 0.000000 
						CHANNELS 3 Yrotation Zrotation Xrotation
						JOINT lHand
						{
							OFFSET 8.370511 0.000000 0.000000 
							CHANNELS 3 Zrotation Yrotation Xrotation
							End Site
							{
								OFFSET 4.083176 0.000000 0.000000 
							}
						}
					}
				}
			}
			JOINT rCollar
			{
				OFFSET -3.470700 6.669187 -0.816635 
				CHANNELS 3 Yrotation Zrotation Xrotation
				JOINT rShldr
				{
					OFFSET -3.198488 0.000000 0.000000 
					CHANNELS 3 Zrotation Yrotation Xrotation
					JOINT rForeArm
					{
						OFFSET -10.139888 0.000000 0.000000 
						CHANNELS 3 Yrotation Zrotation Xrotation
						JOINT rHand
						{
							OFFSET -8.370511 0.000000 0.000000 
							CHANNELS 3 Zrotation Yrotation Xrotation
							End Site
							{
								OFFSET -4.083176 0.000000 0.000000 
							}
						}
					}
				}
			}
		}
	}
	JOINT lThigh
	{
		OFFSET 5.308129 -1.633274 1.361059 
		CHANNELS 3 Xrotation Zrotation Yrotation
		JOINT lShin
		{
			OFFSET -2.041588 -20.007561 0.000000 
			CHANNELS 3 Xrotation Zrotation Yrotation
			JOINT lFoot
			{
				OFFSET 0.000000 -19.190928 -1.224953 
				CHANNELS 3 Xrotation Yrotation Zrotation
				End Site
				{
					OFFSET 0.000000 -2.449906 4.627600 
				}
			}
		}
	}
	JOINT rThigh
	{
		OFFSET -5.308129 -1.633274 1.361059 
		CHANNELS 3 Xrotation Zrotation Yrotation
		JOINT rShin
		{
			OFFSET 2.041588 -20.007561 0.000000 
			CHANNELS 3 Xrotation Zrotation Yrotation
			JOINT rFoot
			{
				OFFSET 0.000000 -19.190928 -1.224953 
				CHANNELS 3 Xrotation Yrotation Zrotation
				End Site
				{
					OFFSET 0.000000 -2.449906 4.627600 
				}
			}
		}
	}
}
MOTION
Frames: 10
Frame Time: 0.033333
-5.809722 50.450256 102.264381 6.142579 4.355469 -10.077382 36.036240 9.394015 -5.036143 -12.841796 20.146484 9.310004 51.063168 8.107644 2.471410 -65.380859 9.179688 -3.719145 2.000000 -2.000000 0.000000 -90.527344 5.419922 13.545846 -59.376842 -1.741116 -2.398835 -5.815333 55.657856 -10.296264 -2.000000 2.000000 0.000000 79.287109 -30.546873 -27.641680 52.483696 1.791763 -2.092756 -6.021664 -61.965504 -1.936672 14.842290 -3.983761 5.769864 2.778230 -5.480545 -0.129960 -8.519867 6.302036 0.516065 -29.930414 -11.122393 -9.824588 12.080464 5.056139 1.234250 0.712444 -9.516540 1.902835 
-6.556215 50.048473 103.732719 6.523438 4.511719 -9.677734 35.399879 10.043671 -5.072616 -12.841796 20.146484 9.310004 51.063168 8.107644 2.471410 -65.195320 8.994140 -3.427734 2.000000 -2.000000 0.000000 -90.947266 5.830078 13.574219 -59.191299 -1.741116 -2.398835 -5.713463 55.442226 -10.628602 -2.000000 2.000000 0.000000 78.994141 -30.624998 -27.299896 52.647270 1.502785 -2.001998 -7.129988 -62.011833 -1.054847 16.326448 -3.563620 4.504799 2.944827 -5.823494 -0.156564 -8.873204 6.914706 0.578336 -32.083256 -11.344499 -9.383940 18.244164 4.893767 1.694264 0.747055 -10.227925 2.548069 
-7.309154 49.977577 105.185783 6.865234 4.511719 -9.637903 34.953934 10.649923 -5.017450 -12.841796 20.146484 9.310004 51.063168 8.107644 2.471410 -65.019531 8.984374 -3.396913 2.000000 -2.000000 0.000000 -91.796875 6.142579 12.890625 -58.659885 -1.438998 -2.249928 -5.375766 55.390923 -10.791520 -2.000000 2.000000 0.000000 78.525391 -30.390627 -26.767578 52.834686 1.663319 -2.070890 -8.826799 -62.289421 -0.013041 15.475579 -2.899398 4.341378 6.664046 -5.816599 -0.477037 -7.177582 7.580220 0.107898 -32.869568 -11.024746 -9.265587 21.242371 4.783347 1.796777 2.296417 -10.767587 2.926451 
-8.057362 50.332085 106.621735 7.392578 4.355469 -9.980468 34.469414 11.017540 -4.939731 -12.666016 20.117189 9.358827 51.063168 8.107644 2.471410 -65.019531 8.984374 -3.396913 2.000000 -2.000000 0.000000 -91.718750 6.679688 13.427734 -58.308025 -1.457929 -2.239045 -5.857737 55.374954 -11.379023 -2.000000 2.000000 0.000000 78.164063 -30.126953 -26.772480 53.010216 1.653002 -2.061712 -9.753725 -62.474232 0.404121 12.438968 -1.444671 4.850218 12.843319 -5.711307 -1.076492 -1.352277 7.634290 -1.289535 -31.694960 -10.271629 -9.493737 21.251286 4.812346 1.948328 6.318223 -10.993326 3.504676 
-8.759407 50.694489 108.022842 7.900391 3.994141 -10.516897 34.102631 11.126094 -4.781118 -12.666016 20.117189 9.358827 51.063168 8.107644 2.471410 -64.843750 9.150390 -3.232422 2.000000 -2.000000 0.000000 -90.312500 7.070312 15.801984 -58.317776 -1.467678 -2.238476 -7.513374 55.799393 -13.147057 -2.000000 2.000000 0.000000 77.480469 -29.306641 -26.215717 53.011532 1.812397 -2.111113 -10.253664 -62.518559 0.416975 10.035835 -0.272950 5.279213 17.276064 -5.614903 -1.632998 7.164234 7.113472 -1.889762 -30.386730 -9.412341 -9.497834 21.246960 4.784279 1.952523 5.093346 -11.156664 3.194466 
-9.464706 51.048988 109.418388 8.437499 3.808594 -11.035156 33.933544 11.223249 -4.566091 -12.480469 20.097658 9.423829 51.063168 8.107644 2.471410 -65.009766 9.326172 -3.349610 2.000000 -2.000000 0.000000 -88.564453 7.675782 18.525391 -58.319160 -1.607571 -2.288987 -9.204396 55.865932 -14.601938 -2.000000 2.000000 0.000000 77.119141 -27.910156 -25.664064 53.010216 1.653002 -2.061712 -11.112816 -62.166832 0.949752 10.311097 0.869343 6.119911 16.913429 -5.626611 -1.562717 15.737046 5.166119 -0.384257 -28.561163 -8.348330 -9.300735 20.542316 4.871961 1.413183 4.540411 -10.923758 3.245397 
-10.131804 51.490162 110.790688 8.437499 3.808594 -11.376953 33.703609 11.078445 -4.316018 -12.500000 19.931641 9.374999 51.063168 8.107644 2.471410 -65.000000 9.658202 -3.427734 2.000000 -2.000000 0.000000 -87.617188 7.705078 20.175781 -58.319145 -1.617320 -2.288418 -10.690901 56.138100 -15.417565 -2.000000 2.000000 0.000000 76.250000 -25.966795 -25.673826 52.835979 1.832464 -2.119725 -10.201686 -61.814693 -0.416195 6.313324 2.928379 7.237742 20.410685 -5.489383 -1.881402 35.912090 1.856486 1.690773 -26.463400 -7.792319 -9.882504 19.667839 4.843630 1.832360 3.819041 -11.063037 2.652344 
-10.749575 51.962852 112.137856 8.271484 3.994141 -11.727836 33.470345 10.779495 -4.158298 -12.314453 19.912109 9.436919 51.063168 8.107644 2.471410 -65.166016 10.009765 -3.719005 2.000000 -2.000000 0.000000 -87.802734 7.470702 19.541014 -58.319145 -1.617320 -2.288418 -11.568042 56.638428 -15.590894 -2.000000 2.000000 0.000000 75.615234 -23.652342 -25.082043 52.471245 1.492468 -1.992820 -9.751967 -61.184849 -1.438058 8.381218 3.299404 8.377826 15.141642 -5.452543 -1.377046 51.693512 0.392442 4.844497 -24.360527 -7.243974 -10.257787 18.779062 4.872909 1.608122 3.451570 -10.531237 2.463017 
-11.347544 52.317371 113.357872 8.105469 4.150391 -11.894531 33.211906 10.539947 -3.768298 -12.148438 19.707031 9.453126 51.063168 8.107644 2.471410 -64.980476 9.833983 -3.828125 2.000000 -2.000000 0.000000 -88.740234 7.294922 17.675781 -58.143379 -1.607571 -2.288987 -12.790886 56.744373 -15.610143 -2.000000 2.000000 0.000000 74.873047 -21.513672 -25.068357 52.484135 1.841645 -2.109411 -9.189200 -60.661629 -2.193217 4.029530 4.226033 9.990712 21.114840 -5.460192 -1.957921 53.101234 1.716884 5.558741 -22.769766 -7.429846 -9.957704 19.308216 4.919913 1.173038 3.850861 -10.275564 2.708382 
-11.949794 52.553707 114.400139 7.558594 4.355469 -11.893790 32.924004 10.078896 -3.315001 -12.148438 19.707031 9.453126 51.063168 8.107644 2.471410 -64.482422 9.306640 -3.925782 2.000000 -2.000000 0.000000 -89.775391 6.679688 15.820313 -57.967331 -1.607004 -2.279241 -13.326616 56.879795 -15.435831 -2.000000 2.000000 0.000000 74.287109 -19.531250 -24.798187 52.483887 1.831327 -2.100233 -8.649926 -60.119476 -2.910173 -1.707798 4.369973 11.834850 29.509167 -4.536487 -2.840714 42.850456 4.127896 3.715065 -21.146328 -7.204093 -10.720292 19.486332 4.874791 1.608700 3.289730 -10.351290 2.304588 
